# xmcd
#
# Track frame offsets:
#	150
#	11537
#	26560
#	43730
#	56235
#	73130
#	87655
#	101252
#	120342
#	136672
#	149987
#	161757
#
# Disc length: 2364 seconds
#
# Revision: 1
# Processed by: cddbd v1.5.2PL0 Copyright (c) Steve Scherf et al.
# Submitted via: audiograbber 1.83.01
#
DISCID=ab093a0c
DTITLE=Farrell Quinn - Looking For Home
DYEAR=1900
DGENRE=Country
TTITLE0=Rageous Blue
TTITLE1=Crack it up
TTITLE2=One True Love
TTITLE3=Thunder of Horses
TTITLE4=Lovers like you
TTITLE5=Stand in the wind
TTITLE6=Little Bird
TTITLE7=Stay with me
TTITLE8=Through the stone
TTITLE9=Loving you for so long
TTITLE10=Laughing child
TTITLE11=Looking for home
EXTD=
EXTT0=
EXTT1=
EXTT2=
EXTT3=
EXTT4=
EXTT5=
EXTT6=
EXTT7=
EXTT8=
EXTT9=
EXTT10=
EXTT11=
PLAYORDER=
